<html>
<head>
<meta charset="UTF-8">
<meta name="viewport" content="width=device-width, initial-scale=1.0"/>

<style>
.comment
{
    padding-left: 20px;
    margin-top: 4px;
    margin-right: 4px;
    margin-bottom: 4px;
    border: 2px #000 solid;
}
.submission
{
    border: 4px #00f solid;
    padding-left: 20px;
}
.hidden
{
    display: none;
}
</style>
</head>
<body><div class="submission" id="t3_6masmu">
    <p class="userinfo">
        <a href="https://www.reddit.com/u/MrWifeSteal007">MrWifeSteal007</a>
        <span class="score"> | 25 points</span>
        <span class="timestamp"> | Jul 09 2017 23:34:48</span>
    </p>
    <strong>[Movie] Despicable Me 3 2017 HD-TS x265 [533MB]</strong>
    <p><p><strong>Link</strong> 
<a href="http://links.snahp.it/424dm32017">Link</a></p>
<p><strong>Pass</strong> Case sensetive - MrWifeSteal007</p>
<p><strong>General</strong></p>
<p>Complete name                            : dm32017.mkv
Format                                   : Matroska
Format version                           : Version 4 / Version 2
File size                                : 533 MiB
Duration                                 : 1 h 29 min
Overall bit rate                         : 832 kb/s
Encoded date                             : UTC 2017-07-09 23:22:26
Writing application                      : mkvmerge v13.0.0 ('The Juggler') 64bit
Writing library                          : libebml v1.3.4 + libmatroska v1.4.5
Writing frontend                         : StaxRip v1.5.1.9</p>
<p><strong>Video</strong></p>
<p>ID                                       : 1
Format                                   : HEVC
Format/Info                              : High Efficiency Video Coding
Format profile                           : Main@L3.1@Main
Codec ID                                 : V_MPEGH/ISO/HEVC
Duration                                 : 1 h 21 min
Bit rate                                 : 698 kb/s
Width                                    : 720 pixels
Height                                   : 304 pixels
Display aspect ratio                     : 2.35:1
Frame rate mode                          : Constant
Frame rate                               : 30.000 FPS
Color space                              : YUV
Chroma subsampling                       : 4:2:0
Bit depth                                : 8 bits
Bits/(Pixel*Frame)                       : 0.106
Stream size                              : 409 MiB (77%)
Default                                  : Yes
Forced                                   : No</p>
<p><strong>Audio</strong></p>
<p>ID                                       : 2
Format                                   : MPEG Audio
Format version                           : Version 1
Format profile                           : Layer 3
Codec ID                                 : A_MPEG/L3
Codec ID/Hint                            : MP3
Duration                                 : 1 h 29 min
Bit rate mode                            : Constant
Bit rate                                 : 192 kb/s
Channel(s)                               : 2 channels
Sampling rate                            : 44.1 kHz
Frame rate                               : 38.281 FPS (1152 spf)
Compression mode                         : Lossy
Delay relative to video                  : 124 ms
Stream size                              : 123 MiB (23%)
Writing library                          : LAME3.99^l~ÙúJú%Ð‘
Language                                 : English
Default                                  : No
Forced                                   : No</p></p>
    <p class="toolbar">
        <a href="https://www.reddit.com/r/megalinks/comments/6masmu">permalink</a>
    </p>
</div>
<div class="comment" id="t1_dk0z60n">
    <p class="userinfo">
        <a
        class="toggle_hide_button"
        href="javascript:void(0)"
        onclick="toggle_collapse(this.parentElement.parentElement)">[-]
        </a>
        <a href="https://www.reddit.com/u/Bobby_Booey">Bobby_Booey</a>
        <span class="score"> | 3 points</span>
        <span class="timestamp"> | Jul 10 2017 14:30:00</span>
    </p>
    <div class="collapsible">
        <p>FYI: The audio sounded shitty at first, but switching it to mono (left channel) in VLC greatly improved it.</p>
        <p class="toolbar">
            <a href="https://www.reddit.com/r/megalinks/comments/6masmu/_/dk0z60n">permalink</a>
        </p>
        
    </div>
</div>

<div class="comment" id="t1_dk068u6">
    <p class="userinfo">
        <a
        class="toggle_hide_button"
        href="javascript:void(0)"
        onclick="toggle_collapse(this.parentElement.parentElement)">[-]
        </a>
        <a href="https://www.reddit.com/u/boltrop">boltrop</a>
        <span class="score"> | 1 points</span>
        <span class="timestamp"> | Jul 09 2017 23:38:07</span>
    </p>
    <div class="collapsible">
        <h3><a href="https://images-na.ssl-images-amazon.com/images/M/MV5BNjUyNzQ2MTg3Ml5BMl5BanBnXkFtZTgwNzE4NDM3MTI@._V1_.jpg">Despicable Me 3</a> (2017)</h3>
<p><strong>Genre</strong>: Animation, Action, Adventure, Comedy, Family, Sci-Fi</p>
<p><strong>Rating</strong>:  6.4 (11657 votes)</p>
<p><strong>Certification</strong>: PG</p>
<p><strong>Runtime</strong>: 90 min</p>
<hr>
<blockquote>
<p><strong>Director(s)</strong>: <a href="https://www.imdb.com/name/nm0049633/">Kyle Balda</a>, <a href="https://www.imdb.com/name/nm1853544/">Pierre Coffin</a></p>
<p><strong>Writer(s)</strong>: <a href="https://www.imdb.com/name/nm0666791/">Cinco Paul</a>, <a href="https://www.imdb.com/name/nm0202425/">Ken Daurio</a></p>
<p><strong>Cast</strong>: <a href="https://www.imdb.com/name/nm0136797/">Steve Carell</a>, <a href="https://www.imdb.com/name/nm1325419/">Kristen Wiig</a>, <a href="https://www.imdb.com/name/nm0005295/">Trey Parker</a>, <a href="https://www.imdb.com/name/nm1388927/">Miranda Cosgrove</a></p>
<p><strong>Plot</strong>: Gru meets his long-lost charming, cheerful, and more successful twin brother Dru who wants to team up with him for one last criminal heist.</p>
</blockquote>
<hr>
<p>^This ^summary ^is ^taken ^from <a href="https://www.imdb.com/title/tt3469046/">^imdb.com</a> ^| ^For ^feedback ^or ^suggestions ^contact <a href="http://www.reddit.com/message/compose/?to=indigo6alpha">^/u/indigo6alpha</a></p>
        <p class="toolbar">
            <a href="https://www.reddit.com/r/megalinks/comments/6masmu/_/dk068u6">permalink</a>
        </p>
        
    </div>
</div>
</body>

<script>
function toggle_collapse(comment_div)
{
    var button = comment_div.getElementsByClassName("toggle_hide_button")[0];
    var collapsible = comment_div.getElementsByClassName("collapsible")[0];
    if (collapsible.classList.contains("hidden"))
    {
        collapsible.classList.remove("hidden");
        button.innerText = "[-]";
    }
    else
    {
        collapsible.classList.add("hidden");
        button.innerText = "[+]";
    }
}
</script>
</html>
